<?xml version="1.0" encoding="UTF-8" standalone="no"?>
<svg
   xmlns:dc="http://purl.org/dc/elements/1.1/"
   xmlns:cc="http://creativecommons.org/ns#"
   xmlns:rdf="http://www.w3.org/1999/02/22-rdf-syntax-ns#"
   xmlns:svg="http://www.w3.org/2000/svg"
   xmlns="http://www.w3.org/2000/svg"
   viewBox="0 0 676 677.33331"
   height="677.33331"
   width="676"
   xml:space="preserve"
   id="svg2"
   version="1.1"><metadata
     id="metadata8"><rdf:RDF><cc:Work
         rdf:about=""><dc:format>image/svg+xml</dc:format><dc:type
           rdf:resource="http://purl.org/dc/dcmitype/StillImage" /></cc:Work></rdf:RDF></metadata><defs
     id="defs6" /><g
     transform="matrix(1.3333333,0,0,-1.3333333,0,677.33333)"
     id="g10"><g
       transform="scale(0.1)"
       id="g12"><path
         id="path14"
         style="fill:#d4e8e8;fill-opacity:1;fill-rule:evenodd;stroke:none"
         d="M 0.863281,9.87891 H 5064.8633 V 5073.8789 H 0.863281 Z" /><path
         id="path16"
         style="fill:#bad1d1;fill-opacity:1;fill-rule:evenodd;stroke:none"
         d="M 5064.86,2480.46 V 9.87891 H 2718.12 L 2256.8,467.699 l 122.85,1091.761 -890.51,885 1728.84,1870.27 1846.88,-1834.27" /><path
         id="path18"
         style="fill:#ffba45;fill-opacity:1;fill-rule:evenodd;stroke:none"
         d="m 2226.86,2444.46 h 612 V 608.457 c 0,-404.828 -612,-404.828 -612,0 V 2444.46" /><path
         id="path20"
         style="fill:#ffa100;fill-opacity:1;fill-rule:evenodd;stroke:none"
         d="m 2532.86,2444.46 h 306 V 608.457 c 0,-202.414 -153,-303.621 -306,-303.621 V 2444.46" /><path
         id="path22"
         style="fill:#333333;fill-opacity:1;fill-rule:evenodd;stroke:none"
         d="m 1489.14,3588.38 c 0,527.75 575.81,955.69 1043.72,1190.55 473.91,-216.86 1043.72,-662.8 1043.72,-1190.55 V 2444.46 H 1489.14 v 1143.92" /><path
         id="path24"
         style="fill:#000000;fill-opacity:1;fill-rule:evenodd;stroke:none"
         d="m 2532.86,4778.93 c 473.91,-216.86 1043.72,-662.8 1043.72,-1190.55 V 2444.46 H 2532.86 v 2334.47" /><path
         id="path26"
         style="fill:#4d4d4d;fill-opacity:1;fill-rule:evenodd;stroke:none"
         d="m 2838.86,3308.47 v -1002 c 0,-404.82 -612,-404.83 -612,0 v 1002 c 0,404.82 612,404.82 612,0" /><path
         id="path28"
         style="fill:#808080;fill-opacity:1;fill-rule:evenodd;stroke:none"
         d="m 2838.86,2444.46 v -137.99 c 0,-404.82 -612,-404.83 -612,0 v 137.99 h 612" /><path
         id="path30"
         style="fill:#666666;fill-opacity:1;fill-rule:evenodd;stroke:none"
         d="m 2838.86,3308.47 v -1002 c 0,-202.41 -153,-303.62 -306,-303.62 v 1609.24 c 153,0 306,-101.21 306,-303.62" /><path
         id="path32"
         style="fill:#999999;fill-opacity:1;fill-rule:evenodd;stroke:none"
         d="m 2838.86,2444.46 v -137.99 c 0,-202.41 -153,-303.62 -306,-303.62 v 441.61 h 306" /></g></g></svg>